<svg width="512" height="512" viewBox="0 0 512 512" xmlns="http://www.w3.org/2000/svg">
  <!-- Gradient Background -->
  <defs>
    <linearGradient id="bgGradient" x1="0%" y1="0%" x2="100%" y2="100%">
      <stop offset="0%" style="stop-color:#667EEA;stop-opacity:1" />
      <stop offset="100%" style="stop-color:#764BA2;stop-opacity:1" />
    </linearGradient>
    <filter id="shadow" x="-50%" y="-50%" width="200%" height="200%">
      <feDropShadow dx="0" dy="4" stdDeviation="8" flood-color="#000000" flood-opacity="0.1"/>
    </filter>
  </defs>
  
  <!-- Background -->
  <rect width="512" height="512" rx="96" fill="url(#bgGradient)"/>
  
  <!-- Collection Icon -->
  <g transform="translate(256, 256)">
    <!-- Folder/Box Shape -->
    <path d="M -100 -60 L -100 60 Q -100 80 -80 80 L 80 80 Q 100 80 100 60 L 100 -40 Q 100 -60 80 -60 L 20 -60 L 0 -80 L -40 -80 Q -60 -80 -60 -60 Z" 
          fill="white" 
          opacity="0.95"
          filter="url(#shadow)"/>
    
    <!-- Collection Lines -->
    <rect x="-60" y="-20" width="80" height="8" rx="4" fill="#667EEA" opacity="0.6"/>
    <rect x="-60" y="5" width="120" height="8" rx="4" fill="#667EEA" opacity="0.4"/>
    <rect x="-60" y="30" width="100" height="8" rx="4" fill="#667EEA" opacity="0.3"/>
    
    <!-- Add Button -->
    <circle cx="70" cy="40" r="35" fill="#10B981"/>
    <path d="M 70 25 L 70 55 M 55 40 L 85 40" 
          stroke="white" 
          stroke-width="6"
          stroke-linecap="round"/>
  </g>
</svg>